<?xml version="1.0" standalone="no"?>
<!DOCTYPE svg PUBLIC "-//W3C//DTD SVG 20010904//EN"
 "http://www.w3.org/TR/2001/REC-SVG-20010904/DTD/svg10.dtd">
<svg version="1.0" xmlns="http://www.w3.org/2000/svg"
 width="581.000000pt" height="581.000000pt" viewBox="0 0 581.000000 581.000000"
 preserveAspectRatio="xMidYMid meet">
<metadata>
Created by potrace 1.11, written by Peter Selinger 2001-2013
</metadata>
<g transform="translate(0.000000,581.000000) scale(0.100000,-0.100000)"
fill="#000000" stroke="none">
<path d="M670 3005 c0 -718 3 -1306 8 -1306 4 -1 132 -2 284 -3 178 -1 279 3
281 9 2 6 3 375 3 822 -1 446 0 810 2 809 4 -4 8 -31 17 -96 7 -57 12 -91 20
-137 2 -16 7 -48 10 -73 5 -47 10 -88 20 -155 9 -58 18 -126 30 -220 4 -27 9
-63 11 -80 3 -16 8 -46 10 -65 3 -19 7 -48 9 -65 3 -16 7 -54 10 -83 4 -29 8
-63 11 -75 5 -26 12 -78 18 -132 5 -40 14 -99 21 -145 3 -14 7 -50 10 -80 4
-30 8 -62 10 -70 2 -8 7 -42 11 -74 3 -33 7 -67 9 -75 2 -14 27 -16 196 -16
107 -1 199 1 206 3 6 2 11 11 11 20 -1 16 4 55 17 152 2 19 7 56 10 81 3 25 7
55 10 67 2 11 7 52 10 89 4 37 9 77 11 88 4 24 11 73 19 144 4 30 8 63 11 74
2 11 6 43 9 71 3 28 7 67 10 86 7 48 13 95 20 160 7 57 9 68 18 135 3 22 9 64
12 94 4 30 8 61 10 70 1 9 6 43 10 76 4 33 8 69 10 80 11 82 18 143 17 157 0
10 2 20 6 22 4 2 7 -352 7 -787 0 -436 2 -812 5 -837 l5 -45 282 0 c180 0 284
4 286 10 2 5 3 593 3 1305 l-1 1295 -427 3 c-236 1 -428 -1 -429 -5 0 -5 -2
-17 -3 -28 -2 -11 -6 -49 -11 -85 -4 -36 -9 -72 -10 -81 -3 -17 -9 -59 -31
-249 -3 -25 -7 -56 -9 -70 -2 -14 -7 -54 -10 -90 -4 -36 -8 -72 -10 -80 -2 -9
-6 -46 -9 -82 -4 -37 -9 -77 -11 -90 -3 -13 -7 -41 -9 -63 -5 -38 -15 -128
-21 -170 -1 -11 -3 -31 -4 -45 -2 -44 -19 -7 -26 57 -3 34 -7 70 -9 80 -2 10
-7 41 -11 68 -6 47 -8 62 -19 145 -3 19 -7 49 -10 65 -3 17 -7 50 -10 75 -3
25 -7 59 -10 75 -3 17 -8 50 -11 75 -3 25 -8 56 -10 70 -5 35 -13 97 -20 155
-4 28 -8 57 -10 65 -2 8 -7 40 -10 70 -3 30 -8 64 -10 75 -2 11 -4 30 -4 43
l-1 22 -425 0 -425 0 0 -1305z"/>
<path d="M2940 3002 l0 -1307 325 0 c179 0 326 2 326 5 1 3 2 591 3 1308 l1
1302 -327 0 -328 0 0 -1308z"/>
<path d="M3855 3008 c-1 -716 3 -1305 7 -1308 19 -14 1065 -1 1144 14 12 3 37
7 56 10 142 22 255 136 284 286 3 14 7 32 9 40 12 40 19 185 19 380 0 259 -8
338 -44 434 -32 83 -102 155 -192 195 -141 63 -136 60 -110 60 35 1 163 63
204 100 38 33 73 108 86 185 9 53 9 304 0 381 -9 74 -42 195 -68 245 -27 53
-124 156 -176 186 -55 32 -136 60 -199 69 -27 4 -61 9 -75 12 -14 3 -232 7
-485 10 l-460 5 0 -1304z m818 810 c39 -47 44 -74 44 -238 0 -253 -15 -283
-149 -294 l-58 -5 0 291 0 290 68 -5 c60 -5 70 -9 95 -39z m-67 -952 c57 -8
90 -32 101 -74 10 -33 11 -507 1 -543 -15 -60 -45 -85 -116 -94 -21 -3 -47 -8
-59 -10 l-23 -5 0 369 0 369 23 -2 c12 -2 45 -6 73 -10z"/>
</g>
</svg>
